<svg id="Layer_1" data-name="Layer 1" xmlns="http://www.w3.org/2000/svg" viewBox="0 0 225.8 38.1"><defs><style>.cls-1{fill:#fff}.cls-2{fill:#ff3600}</style></defs><title>logo</title><g id="Слой_3" data-name="Слой 3"><path class="cls-1" d="M95 27.9h5.1V10.3H95l-4.6 8.9-4.7-8.9h-6.9l1.8 1.6v16h5.1V17.2l4.7 8.5 4.6-8.5v10.7z"/><path class="cls-1" d="M120.5 18.2a3.64 3.64 0 0 0 .2-1.4v-2.7a4 4 0 0 0-.3-1.5 3.46 3.46 0 0 0-.7-1.2 3.92 3.92 0 0 0-1-.8 2.66 2.66 0 0 0-1.2-.3h-15.4l1.8 1.6v15.9h14.3a2.66 2.66 0 0 0 1.2-.3 2.72 2.72 0 0 0 1-.8 4.73 4.73 0 0 0 .7-1.2 3.89 3.89 0 0 0 .2-1.5v-3a3.88 3.88 0 0 0-.8-2.8zm-5.8-4.3c.2 0 .5 0 .6.2a1.14 1.14 0 0 1 .3.8v1.2a1.33 1.33 0 0 1-.3.8.86.86 0 0 1-.6.3H109v-3.3zm1.6 9.4a.91.91 0 0 1-.3.7.71.71 0 0 1-.6.3H109v-3.6h6.4a.6.6 0 0 1 .6.3 1.14 1.14 0 0 1 .3.8zm24.8-1.1a3.38 3.38 0 0 0 .6-1.2 3.4 3.4 0 0 0 .2-1.4v-5.5a4 4 0 0 0-.3-1.5 3.46 3.46 0 0 0-.7-1.2 3.92 3.92 0 0 0-1-.8 2.77 2.77 0 0 0-1.3-.3h-15.4l1.8 1.6v15.9h5.1v-4.5h5.2a.76.76 0 0 1 .8.7l1.3 3.8h5.5zm-4.3-3.4a1.14 1.14 0 0 1-.3.8.86.86 0 0 1-.6.3h-5.7v-6.1h5.7a.71.71 0 0 1 .6.3 1.14 1.14 0 0 1 .3.8z" transform="translate(-.1)"/><path class="cls-1" d="M145.6 12v15.9h14.7v-3.6h-9.6v-3.1h7v-3.6h-7v-3.8h9.6v-3.5h-16.5l1.8 1.7zm33.1 15.8v-3.5h-9.6v-14h-6.9l1.8 1.6v15.9h14.7zm8.8-17.5h-6.9l1.8 1.7v15.9h14.7v-3.6h-9.6v-14zm13.3 1.7v15.9h5.1V10.3H199l1.8 1.7z"/><path class="cls-1" d="M225.6 12.6a3.46 3.46 0 0 0-.7-1.2 3.92 3.92 0 0 0-1-.8 2.77 2.77 0 0 0-1.3-.3h-10.3a2.77 2.77 0 0 0-1.3.3 3.92 3.92 0 0 0-1 .8 4.73 4.73 0 0 0-.7 1.2 4 4 0 0 0-.3 1.5V24a4 4 0 0 0 .3 1.5 3.46 3.46 0 0 0 .7 1.2 3.92 3.92 0 0 0 1 .8 2.77 2.77 0 0 0 1.3.3h10.3a2.77 2.77 0 0 0 1.3-.3 3.92 3.92 0 0 0 1-.8 4.73 4.73 0 0 0 .7-1.2 4 4 0 0 0 .3-1.5v-9.9a3.34 3.34 0 0 0-.3-1.5zm-4.8 10.6a1.45 1.45 0 0 1-.2.7.86.86 0 0 1-.6.3h-4.8a.71.71 0 0 1-.6-.3.91.91 0 0 1-.3-.7v-9.4h5.7a.71.71 0 0 1 .6.3 1.08 1.08 0 0 1 .2.8v8.3zM71.9 10.3v13a1.45 1.45 0 0 1-.2.7.86.86 0 0 1-.6.3h-4.9v-14h-6.9l1.8 1.7v12.1a4 4 0 0 0 .3 1.5 3.46 3.46 0 0 0 .7 1.2 3.92 3.92 0 0 0 1 .8 2.77 2.77 0 0 0 1.3.3h9.5a2.38 2.38 0 0 0 1.2-.3 3.92 3.92 0 0 0 1-.8 3.46 3.46 0 0 0 .7-1.2 3.89 3.89 0 0 0 .2-1.5V10.4h-5.1z" transform="translate(-.1)"/><path class="cls-2" d="M37 35.3V0H13.1v.3L13 33.5H8.4V0H0l3.6 2.9v35.2h14.2V5.2h5.1v32.9h4.7V5.2h5v32.9h7.9L37 35.3z"/></g></svg>